<?xml version="1.0" encoding="UTF-8" standalone="no"?>
<!DOCTYPE svg PUBLIC "-//W3C//DTD SVG 1.1//EN"
 "http://www.w3.org/Graphics/SVG/1.1/DTD/svg11.dtd">
<!-- Generated by graphviz version 2.38.0 (20140413.2041)
 -->
<!-- Title: root Pages: 1 -->
<svg
 viewBox="0.00 0.00 635.00 422.00" xmlns="http://www.w3.org/2000/svg" xmlns:xlink="http://www.w3.org/1999/xlink">
<g id="graph0" class="graph" transform="scale(1 1) rotate(0) translate(4 418)">
<title>root</title>
<polygon fill="white" stroke="none" points="-4,4 -4,-418 631,-418 631,4 -4,4"/>
<!-- n2353 -->
<g id="node1" class="node"><title>n2353</title>
<polygon fill="paleturquoise" stroke="paleturquoise" points="436,-414 382,-414 382,-378 436,-378 436,-414"/>
<text text-anchor="middle" x="409" y="-392.3" font-family="arial" font-size="14.00">2</text>
</g>
<!-- g1852069 -->
<g id="node2" class="node"><title>g1852069</title>
<ellipse fill="turquoise" stroke="turquoise" cx="504" cy="-396" rx="32.5" ry="18"/>
<text text-anchor="middle" x="504" y="-392.3" font-family="arial" font-size="14.00">fft&#45;hb</text>
</g>
<!-- n2353&#45;&gt;g1852069 -->
<g id="edge1" class="edge"><title>n2353&#45;&gt;g1852069</title>
<path fill="none" stroke="black" d="M436.03,-396C444.03,-396 453.05,-396 461.82,-396"/>
<polygon fill="black" stroke="black" points="461.93,-399.5 471.93,-396 461.93,-392.5 461.93,-399.5"/>
</g>
<!-- g1852088 -->
<g id="node3" class="node"><title>g1852088</title>
<ellipse fill="turquoise" stroke="turquoise" cx="504" cy="-342" rx="32.5" ry="18"/>
<text text-anchor="middle" x="504" y="-338.3" font-family="arial" font-size="14.00">fft&#45;hb</text>
</g>
<!-- n2353&#45;&gt;g1852088 -->
<g id="edge2" class="edge"><title>n2353&#45;&gt;g1852088</title>
<path fill="none" stroke="black" d="M436.03,-380.96C447.4,-374.39 460.81,-366.65 472.67,-359.8"/>
<polygon fill="black" stroke="black" points="474.471,-362.802 481.38,-354.77 470.97,-356.74 474.471,-362.802"/>
</g>
<!-- n2338 -->
<g id="node4" class="node"><title>n2338</title>
<polygon fill="paleturquoise" stroke="paleturquoise" points="627,-414 573,-414 573,-378 627,-378 627,-414"/>
<text text-anchor="middle" x="600" y="-392.3" font-family="arial" font-size="14.00">6</text>
</g>
<!-- g1852069&#45;&gt;n2338 -->
<g id="edge3" class="edge"><title>g1852069&#45;&gt;n2338</title>
<path fill="none" stroke="black" d="M537.14,-396C545.43,-396 554.42,-396 562.92,-396"/>
<polygon fill="black" stroke="black" points="562.95,-399.5 572.95,-396 562.95,-392.5 562.95,-399.5"/>
</g>
<!-- n2339 -->
<g id="node5" class="node"><title>n2339</title>
<polygon fill="paleturquoise" stroke="paleturquoise" points="627,-360 573,-360 573,-324 627,-324 627,-360"/>
<text text-anchor="middle" x="600" y="-338.3" font-family="arial" font-size="14.00">2</text>
</g>
<!-- g1852088&#45;&gt;n2339 -->
<g id="edge4" class="edge"><title>g1852088&#45;&gt;n2339</title>
<path fill="none" stroke="black" d="M537.14,-342C545.43,-342 554.42,-342 562.92,-342"/>
<polygon fill="black" stroke="black" points="562.95,-345.5 572.95,-342 562.95,-338.5 562.95,-345.5"/>
</g>
<!-- n2355 -->
<g id="node6" class="node"><title>n2355</title>
<polygon fill="paleturquoise" stroke="paleturquoise" points="436,-360 382,-360 382,-324 436,-324 436,-360"/>
<text text-anchor="middle" x="409" y="-338.3" font-family="arial" font-size="14.00">2</text>
</g>
<!-- n2355&#45;&gt;g1852069 -->
<g id="edge5" class="edge"><title>n2355&#45;&gt;g1852069</title>
<path fill="none" stroke="black" d="M436.03,-357.04C447.4,-363.61 460.81,-371.35 472.67,-378.2"/>
<polygon fill="black" stroke="black" points="470.97,-381.26 481.38,-383.23 474.471,-375.198 470.97,-381.26"/>
</g>
<!-- n2355&#45;&gt;g1852088 -->
<g id="edge6" class="edge"><title>n2355&#45;&gt;g1852088</title>
<path fill="none" stroke="black" d="M436.03,-342C444.03,-342 453.05,-342 461.82,-342"/>
<polygon fill="black" stroke="black" points="461.93,-345.5 471.93,-342 461.93,-338.5 461.93,-345.5"/>
</g>
<!-- n2388 -->
<g id="node7" class="node"><title>n2388</title>
<polygon fill="paleturquoise" stroke="paleturquoise" points="54,-198 0,-198 0,-162 54,-162 54,-198"/>
<text text-anchor="middle" x="27" y="-176.3" font-family="arial" font-size="14.00">3</text>
</g>
<!-- g1852070 -->
<g id="node8" class="node"><title>g1852070</title>
<ellipse fill="turquoise" stroke="turquoise" cx="122" cy="-126" rx="32.5" ry="18"/>
<text text-anchor="middle" x="122" y="-122.3" font-family="arial" font-size="14.00">fft&#45;hb</text>
</g>
<!-- n2388&#45;&gt;g1852070 -->
<g id="edge7" class="edge"><title>n2388&#45;&gt;g1852070</title>
<path fill="none" stroke="black" d="M54.044,-164.96C65.411,-158.39 78.825,-150.65 90.685,-143.8"/>
<polygon fill="black" stroke="black" points="92.4832,-146.803 99.391,-138.77 88.9813,-140.742 92.4832,-146.803"/>
</g>
<!-- g1852071 -->
<g id="node9" class="node"><title>g1852071</title>
<ellipse fill="turquoise" stroke="turquoise" cx="122" cy="-180" rx="32.5" ry="18"/>
<text text-anchor="middle" x="122" y="-176.3" font-family="arial" font-size="14.00">fft&#45;hb</text>
</g>
<!-- n2388&#45;&gt;g1852071 -->
<g id="edge8" class="edge"><title>n2388&#45;&gt;g1852071</title>
<path fill="none" stroke="black" d="M54.044,-180C62.044,-180 71.059,-180 79.831,-180"/>
<polygon fill="black" stroke="black" points="79.943,-183.5 89.943,-180 79.943,-176.5 79.943,-183.5"/>
</g>
<!-- n2380 -->
<g id="node10" class="node"><title>n2380</title>
<polygon fill="paleturquoise" stroke="paleturquoise" points="245,-90 191,-90 191,-54 245,-54 245,-90"/>
<text text-anchor="middle" x="218" y="-68.3" font-family="arial" font-size="14.00">1</text>
</g>
<!-- g1852070&#45;&gt;n2380 -->
<g id="edge9" class="edge"><title>g1852070&#45;&gt;n2380</title>
<path fill="none" stroke="black" d="M145.65,-113.2C156.41,-106.99 169.6,-99.373 181.7,-92.387"/>
<polygon fill="black" stroke="black" points="183.771,-95.2325 190.68,-87.2 180.27,-89.171 183.771,-95.2325"/>
</g>
<!-- n2368 -->
<g id="node11" class="node"><title>n2368</title>
<polygon fill="paleturquoise" stroke="paleturquoise" points="245,-306 191,-306 191,-270 245,-270 245,-306"/>
<text text-anchor="middle" x="218" y="-284.3" font-family="arial" font-size="14.00">0</text>
</g>
<!-- g1852071&#45;&gt;n2368 -->
<g id="edge10" class="edge"><title>g1852071&#45;&gt;n2368</title>
<path fill="none" stroke="black" d="M142.27,-194.62C146.66,-198.43 151.17,-202.69 154.99,-207 174.12,-228.59 172.92,-238.52 190.99,-261 191.29,-261.37 191.59,-261.74 191.89,-262.11"/>
<polygon fill="black" stroke="black" points="189.416,-264.597 198.64,-269.81 194.68,-259.983 189.416,-264.597"/>
</g>
<!-- g1852082 -->
<g id="node12" class="node"><title>g1852082</title>
<ellipse fill="turquoise" stroke="turquoise" cx="313" cy="-72" rx="32.5" ry="18"/>
<text text-anchor="middle" x="313" y="-68.3" font-family="arial" font-size="14.00">fft&#45;hb</text>
</g>
<!-- n2380&#45;&gt;g1852082 -->
<g id="edge11" class="edge"><title>n2380&#45;&gt;g1852082</title>
<path fill="none" stroke="black" d="M245.04,-72C253.04,-72 262.05,-72 270.83,-72"/>
<polygon fill="black" stroke="black" points="270.94,-75.5001 280.94,-72 270.94,-68.5001 270.94,-75.5001"/>
</g>
<!-- g1852090 -->
<g id="node13" class="node"><title>g1852090</title>
<ellipse fill="turquoise" stroke="turquoise" cx="313" cy="-18" rx="32.5" ry="18"/>
<text text-anchor="middle" x="313" y="-14.3" font-family="arial" font-size="14.00">fft&#45;hb</text>
</g>
<!-- n2380&#45;&gt;g1852090 -->
<g id="edge12" class="edge"><title>n2380&#45;&gt;g1852090</title>
<path fill="none" stroke="black" d="M245.04,-56.958C256.41,-50.393 269.82,-42.645 281.68,-35.796"/>
<polygon fill="black" stroke="black" points="283.48,-38.7983 290.39,-30.767 279.98,-32.7362 283.48,-38.7983"/>
</g>
<!-- g1852084 -->
<g id="node17" class="node"><title>g1852084</title>
<ellipse fill="turquoise" stroke="turquoise" cx="313" cy="-234" rx="32.5" ry="18"/>
<text text-anchor="middle" x="313" y="-230.3" font-family="arial" font-size="14.00">fft&#45;hb</text>
</g>
<!-- n2368&#45;&gt;g1852084 -->
<g id="edge17" class="edge"><title>n2368&#45;&gt;g1852084</title>
<path fill="none" stroke="black" d="M245.04,-272.96C256.41,-266.39 269.82,-258.65 281.68,-251.8"/>
<polygon fill="black" stroke="black" points="283.481,-254.802 290.39,-246.77 279.98,-248.74 283.481,-254.802"/>
</g>
<!-- g1852087 -->
<g id="node18" class="node"><title>g1852087</title>
<ellipse fill="turquoise" stroke="turquoise" cx="313" cy="-288" rx="32.5" ry="18"/>
<text text-anchor="middle" x="313" y="-284.3" font-family="arial" font-size="14.00">fft&#45;hb</text>
</g>
<!-- n2368&#45;&gt;g1852087 -->
<g id="edge18" class="edge"><title>n2368&#45;&gt;g1852087</title>
<path fill="none" stroke="black" d="M245.04,-288C253.04,-288 262.05,-288 270.83,-288"/>
<polygon fill="black" stroke="black" points="270.94,-291.5 280.94,-288 270.94,-284.5 270.94,-291.5"/>
</g>
<!-- n2357 -->
<g id="node15" class="node"><title>n2357</title>
<polygon fill="paleturquoise" stroke="paleturquoise" points="436,-144 382,-144 382,-108 436,-108 436,-144"/>
<text text-anchor="middle" x="409" y="-122.3" font-family="arial" font-size="14.00">3</text>
</g>
<!-- g1852082&#45;&gt;n2357 -->
<g id="edge15" class="edge"><title>g1852082&#45;&gt;n2357</title>
<path fill="none" stroke="black" d="M336.65,-84.797C347.41,-91.011 360.59,-98.627 372.69,-105.61"/>
<polygon fill="black" stroke="black" points="371.261,-108.826 381.67,-110.8 374.763,-102.766 371.261,-108.826"/>
</g>
<!-- n2356 -->
<g id="node16" class="node"><title>n2356</title>
<polygon fill="paleturquoise" stroke="paleturquoise" points="436,-36 382,-36 382,-0 436,-0 436,-36"/>
<text text-anchor="middle" x="409" y="-14.3" font-family="arial" font-size="14.00">1</text>
</g>
<!-- g1852090&#45;&gt;n2356 -->
<g id="edge16" class="edge"><title>g1852090&#45;&gt;n2356</title>
<path fill="none" stroke="black" d="M346.15,-18C354.43,-18 363.43,-18 371.92,-18"/>
<polygon fill="black" stroke="black" points="371.96,-21.5001 381.96,-18 371.96,-14.5001 371.96,-21.5001"/>
</g>
<!-- n2390 -->
<g id="node14" class="node"><title>n2390</title>
<polygon fill="paleturquoise" stroke="paleturquoise" points="54,-144 0,-144 0,-108 54,-108 54,-144"/>
<text text-anchor="middle" x="27" y="-122.3" font-family="arial" font-size="14.00">7</text>
</g>
<!-- n2390&#45;&gt;g1852070 -->
<g id="edge13" class="edge"><title>n2390&#45;&gt;g1852070</title>
<path fill="none" stroke="black" d="M54.044,-126C62.044,-126 71.059,-126 79.831,-126"/>
<polygon fill="black" stroke="black" points="79.943,-129.5 89.943,-126 79.943,-122.5 79.943,-129.5"/>
</g>
<!-- n2390&#45;&gt;g1852071 -->
<g id="edge14" class="edge"><title>n2390&#45;&gt;g1852071</title>
<path fill="none" stroke="black" d="M54.044,-141.04C65.411,-147.61 78.825,-155.35 90.685,-162.2"/>
<polygon fill="black" stroke="black" points="88.9813,-165.258 99.391,-167.23 92.4832,-159.197 88.9813,-165.258"/>
</g>
<!-- g1852079 -->
<g id="node49" class="node"><title>g1852079</title>
<ellipse fill="turquoise" stroke="turquoise" cx="504" cy="-180" rx="32.5" ry="18"/>
<text text-anchor="middle" x="504" y="-176.3" font-family="arial" font-size="14.00">fft&#45;hb</text>
</g>
<!-- n2357&#45;&gt;g1852079 -->
<g id="edge65" class="edge"><title>n2357&#45;&gt;g1852079</title>
<path fill="none" stroke="black" d="M436.03,-141.04C447.4,-147.61 460.81,-155.35 472.67,-162.2"/>
<polygon fill="black" stroke="black" points="470.97,-165.26 481.38,-167.23 474.471,-159.198 470.97,-165.26"/>
</g>
<!-- g1852083 -->
<g id="node50" class="node"><title>g1852083</title>
<ellipse fill="turquoise" stroke="turquoise" cx="504" cy="-126" rx="32.5" ry="18"/>
<text text-anchor="middle" x="504" y="-122.3" font-family="arial" font-size="14.00">fft&#45;hb</text>
</g>
<!-- n2357&#45;&gt;g1852083 -->
<g id="edge66" class="edge"><title>n2357&#45;&gt;g1852083</title>
<path fill="none" stroke="black" d="M436.03,-126C444.03,-126 453.05,-126 461.82,-126"/>
<polygon fill="black" stroke="black" points="461.93,-129.5 471.93,-126 461.93,-122.5 461.93,-129.5"/>
</g>
<!-- g1852074 -->
<g id="node33" class="node"><title>g1852074</title>
<ellipse fill="turquoise" stroke="turquoise" cx="504" cy="-72" rx="32.5" ry="18"/>
<text text-anchor="middle" x="504" y="-68.3" font-family="arial" font-size="14.00">fft&#45;hb</text>
</g>
<!-- n2356&#45;&gt;g1852074 -->
<g id="edge39" class="edge"><title>n2356&#45;&gt;g1852074</title>
<path fill="none" stroke="black" d="M436.03,-33.042C447.4,-39.607 460.81,-47.355 472.67,-54.204"/>
<polygon fill="black" stroke="black" points="470.97,-57.2638 481.38,-59.233 474.47,-51.2017 470.97,-57.2638"/>
</g>
<!-- g1852091 -->
<g id="node34" class="node"><title>g1852091</title>
<ellipse fill="turquoise" stroke="turquoise" cx="504" cy="-18" rx="32.5" ry="18"/>
<text text-anchor="middle" x="504" y="-14.3" font-family="arial" font-size="14.00">fft&#45;hb</text>
</g>
<!-- n2356&#45;&gt;g1852091 -->
<g id="edge40" class="edge"><title>n2356&#45;&gt;g1852091</title>
<path fill="none" stroke="black" d="M436.03,-18C444.03,-18 453.05,-18 461.82,-18"/>
<polygon fill="black" stroke="black" points="461.93,-21.5001 471.93,-18 461.93,-14.5001 461.93,-21.5001"/>
</g>
<!-- n2358 -->
<g id="node19" class="node"><title>n2358</title>
<polygon fill="paleturquoise" stroke="paleturquoise" points="436,-252 382,-252 382,-216 436,-216 436,-252"/>
<text text-anchor="middle" x="409" y="-230.3" font-family="arial" font-size="14.00">0</text>
</g>
<!-- g1852084&#45;&gt;n2358 -->
<g id="edge19" class="edge"><title>g1852084&#45;&gt;n2358</title>
<path fill="none" stroke="black" d="M346.15,-234C354.43,-234 363.43,-234 371.92,-234"/>
<polygon fill="black" stroke="black" points="371.96,-237.5 381.96,-234 371.96,-230.5 371.96,-237.5"/>
</g>
<!-- g1852087&#45;&gt;n2355 -->
<g id="edge20" class="edge"><title>g1852087&#45;&gt;n2355</title>
<path fill="none" stroke="black" d="M336.65,-300.8C347.41,-307.01 360.59,-314.63 372.69,-321.61"/>
<polygon fill="black" stroke="black" points="371.261,-324.826 381.67,-326.8 374.763,-318.766 371.261,-324.826"/>
</g>
<!-- g1852080 -->
<g id="node53" class="node"><title>g1852080</title>
<ellipse fill="turquoise" stroke="turquoise" cx="504" cy="-288" rx="32.5" ry="18"/>
<text text-anchor="middle" x="504" y="-284.3" font-family="arial" font-size="14.00">fft&#45;hb</text>
</g>
<!-- n2358&#45;&gt;g1852080 -->
<g id="edge71" class="edge"><title>n2358&#45;&gt;g1852080</title>
<path fill="none" stroke="black" d="M436.03,-249.04C447.4,-255.61 460.81,-263.35 472.67,-270.2"/>
<polygon fill="black" stroke="black" points="470.97,-273.26 481.38,-275.23 474.471,-267.198 470.97,-273.26"/>
</g>
<!-- g1852092 -->
<g id="node54" class="node"><title>g1852092</title>
<ellipse fill="turquoise" stroke="turquoise" cx="504" cy="-234" rx="32.5" ry="18"/>
<text text-anchor="middle" x="504" y="-230.3" font-family="arial" font-size="14.00">fft&#45;hb</text>
</g>
<!-- n2358&#45;&gt;g1852092 -->
<g id="edge72" class="edge"><title>n2358&#45;&gt;g1852092</title>
<path fill="none" stroke="black" d="M436.03,-234C444.03,-234 453.05,-234 461.82,-234"/>
<polygon fill="black" stroke="black" points="461.93,-237.5 471.93,-234 461.93,-230.5 461.93,-237.5"/>
</g>
<!-- n2385 -->
<g id="node20" class="node"><title>n2385</title>
<polygon fill="paleturquoise" stroke="paleturquoise" points="54,-414 0,-414 0,-378 54,-378 54,-414"/>
<text text-anchor="middle" x="27" y="-392.3" font-family="arial" font-size="14.00">2</text>
</g>
<!-- g1852072 -->
<g id="node21" class="node"><title>g1852072</title>
<ellipse fill="turquoise" stroke="turquoise" cx="122" cy="-342" rx="32.5" ry="18"/>
<text text-anchor="middle" x="122" y="-338.3" font-family="arial" font-size="14.00">fft&#45;hb</text>
</g>
<!-- n2385&#45;&gt;g1852072 -->
<g id="edge21" class="edge"><title>n2385&#45;&gt;g1852072</title>
<path fill="none" stroke="black" d="M54.044,-380.96C65.411,-374.39 78.825,-366.65 90.685,-359.8"/>
<polygon fill="black" stroke="black" points="92.4832,-362.803 99.391,-354.77 88.9813,-356.742 92.4832,-362.803"/>
</g>
<!-- g1852073 -->
<g id="node22" class="node"><title>g1852073</title>
<ellipse fill="turquoise" stroke="turquoise" cx="122" cy="-396" rx="32.5" ry="18"/>
<text text-anchor="middle" x="122" y="-392.3" font-family="arial" font-size="14.00">fft&#45;hb</text>
</g>
<!-- n2385&#45;&gt;g1852073 -->
<g id="edge22" class="edge"><title>n2385&#45;&gt;g1852073</title>
<path fill="none" stroke="black" d="M54.044,-396C62.044,-396 71.059,-396 79.831,-396"/>
<polygon fill="black" stroke="black" points="79.943,-399.5 89.943,-396 79.943,-392.5 79.943,-399.5"/>
</g>
<!-- n2376 -->
<g id="node23" class="node"><title>n2376</title>
<polygon fill="paleturquoise" stroke="paleturquoise" points="245,-198 191,-198 191,-162 245,-162 245,-198"/>
<text text-anchor="middle" x="218" y="-176.3" font-family="arial" font-size="14.00">1</text>
</g>
<!-- g1852072&#45;&gt;n2376 -->
<g id="edge23" class="edge"><title>g1852072&#45;&gt;n2376</title>
<path fill="none" stroke="black" d="M143.13,-328.04C147.5,-324.21 151.78,-319.78 154.99,-315 183.23,-273.01 164.8,-250.29 190.99,-207 191.11,-206.81 191.22,-206.62 191.34,-206.44"/>
<polygon fill="black" stroke="black" points="194.236,-208.411 197.37,-198.29 188.609,-204.247 194.236,-208.411"/>
</g>
<!-- n2366 -->
<g id="node24" class="node"><title>n2366</title>
<polygon fill="paleturquoise" stroke="paleturquoise" points="245,-414 191,-414 191,-378 245,-378 245,-414"/>
<text text-anchor="middle" x="218" y="-392.3" font-family="arial" font-size="14.00">0</text>
</g>
<!-- g1852073&#45;&gt;n2366 -->
<g id="edge24" class="edge"><title>g1852073&#45;&gt;n2366</title>
<path fill="none" stroke="black" d="M155.15,-396C163.44,-396 172.43,-396 180.93,-396"/>
<polygon fill="black" stroke="black" points="180.97,-399.5 190.97,-396 180.97,-392.5 180.97,-399.5"/>
</g>
<!-- g1852081 -->
<g id="node25" class="node"><title>g1852081</title>
<ellipse fill="turquoise" stroke="turquoise" cx="313" cy="-180" rx="32.5" ry="18"/>
<text text-anchor="middle" x="313" y="-176.3" font-family="arial" font-size="14.00">fft&#45;hb</text>
</g>
<!-- n2376&#45;&gt;g1852081 -->
<g id="edge25" class="edge"><title>n2376&#45;&gt;g1852081</title>
<path fill="none" stroke="black" d="M245.04,-180C253.04,-180 262.05,-180 270.83,-180"/>
<polygon fill="black" stroke="black" points="270.94,-183.5 280.94,-180 270.94,-176.5 270.94,-183.5"/>
</g>
<!-- g1852089 -->
<g id="node26" class="node"><title>g1852089</title>
<ellipse fill="turquoise" stroke="turquoise" cx="313" cy="-126" rx="32.5" ry="18"/>
<text text-anchor="middle" x="313" y="-122.3" font-family="arial" font-size="14.00">fft&#45;hb</text>
</g>
<!-- n2376&#45;&gt;g1852089 -->
<g id="edge26" class="edge"><title>n2376&#45;&gt;g1852089</title>
<path fill="none" stroke="black" d="M245.04,-164.96C256.41,-158.39 269.82,-150.65 281.68,-143.8"/>
<polygon fill="black" stroke="black" points="283.481,-146.802 290.39,-138.77 279.98,-140.74 283.481,-146.802"/>
</g>
<!-- g1852085 -->
<g id="node30" class="node"><title>g1852085</title>
<ellipse fill="turquoise" stroke="turquoise" cx="313" cy="-342" rx="32.5" ry="18"/>
<text text-anchor="middle" x="313" y="-338.3" font-family="arial" font-size="14.00">fft&#45;hb</text>
</g>
<!-- n2366&#45;&gt;g1852085 -->
<g id="edge31" class="edge"><title>n2366&#45;&gt;g1852085</title>
<path fill="none" stroke="black" d="M245.04,-380.96C256.41,-374.39 269.82,-366.65 281.68,-359.8"/>
<polygon fill="black" stroke="black" points="283.481,-362.802 290.39,-354.77 279.98,-356.74 283.481,-362.802"/>
</g>
<!-- g1852086 -->
<g id="node31" class="node"><title>g1852086</title>
<ellipse fill="turquoise" stroke="turquoise" cx="313" cy="-396" rx="32.5" ry="18"/>
<text text-anchor="middle" x="313" y="-392.3" font-family="arial" font-size="14.00">fft&#45;hb</text>
</g>
<!-- n2366&#45;&gt;g1852086 -->
<g id="edge32" class="edge"><title>n2366&#45;&gt;g1852086</title>
<path fill="none" stroke="black" d="M245.04,-396C253.04,-396 262.05,-396 270.83,-396"/>
<polygon fill="black" stroke="black" points="270.94,-399.5 280.94,-396 270.94,-392.5 270.94,-399.5"/>
</g>
<!-- n2352 -->
<g id="node28" class="node"><title>n2352</title>
<polygon fill="paleturquoise" stroke="paleturquoise" points="436,-198 382,-198 382,-162 436,-162 436,-198"/>
<text text-anchor="middle" x="409" y="-176.3" font-family="arial" font-size="14.00">3</text>
</g>
<!-- g1852081&#45;&gt;n2352 -->
<g id="edge29" class="edge"><title>g1852081&#45;&gt;n2352</title>
<path fill="none" stroke="black" d="M346.15,-180C354.43,-180 363.43,-180 371.92,-180"/>
<polygon fill="black" stroke="black" points="371.96,-183.5 381.96,-180 371.96,-176.5 371.96,-183.5"/>
</g>
<!-- n2354 -->
<g id="node29" class="node"><title>n2354</title>
<polygon fill="paleturquoise" stroke="paleturquoise" points="436,-90 382,-90 382,-54 436,-54 436,-90"/>
<text text-anchor="middle" x="409" y="-68.3" font-family="arial" font-size="14.00">1</text>
</g>
<!-- g1852089&#45;&gt;n2354 -->
<g id="edge30" class="edge"><title>g1852089&#45;&gt;n2354</title>
<path fill="none" stroke="black" d="M336.65,-113.2C347.41,-106.99 360.59,-99.373 372.69,-92.387"/>
<polygon fill="black" stroke="black" points="374.761,-95.2325 381.67,-87.2 371.26,-89.171 374.761,-95.2325"/>
</g>
<!-- n2389 -->
<g id="node27" class="node"><title>n2389</title>
<polygon fill="paleturquoise" stroke="paleturquoise" points="54,-360 0,-360 0,-324 54,-324 54,-360"/>
<text text-anchor="middle" x="27" y="-338.3" font-family="arial" font-size="14.00">6</text>
</g>
<!-- n2389&#45;&gt;g1852072 -->
<g id="edge27" class="edge"><title>n2389&#45;&gt;g1852072</title>
<path fill="none" stroke="black" d="M54.044,-342C62.044,-342 71.059,-342 79.831,-342"/>
<polygon fill="black" stroke="black" points="79.943,-345.5 89.943,-342 79.943,-338.5 79.943,-345.5"/>
</g>
<!-- n2389&#45;&gt;g1852073 -->
<g id="edge28" class="edge"><title>n2389&#45;&gt;g1852073</title>
<path fill="none" stroke="black" d="M54.044,-357.04C65.411,-363.61 78.825,-371.35 90.685,-378.2"/>
<polygon fill="black" stroke="black" points="88.9813,-381.258 99.391,-383.23 92.4832,-375.197 88.9813,-381.258"/>
</g>
<!-- n2352&#45;&gt;g1852079 -->
<g id="edge61" class="edge"><title>n2352&#45;&gt;g1852079</title>
<path fill="none" stroke="black" d="M436.03,-180C444.03,-180 453.05,-180 461.82,-180"/>
<polygon fill="black" stroke="black" points="461.93,-183.5 471.93,-180 461.93,-176.5 461.93,-183.5"/>
</g>
<!-- n2352&#45;&gt;g1852083 -->
<g id="edge62" class="edge"><title>n2352&#45;&gt;g1852083</title>
<path fill="none" stroke="black" d="M436.03,-164.96C447.4,-158.39 460.81,-150.65 472.67,-143.8"/>
<polygon fill="black" stroke="black" points="474.471,-146.802 481.38,-138.77 470.97,-140.74 474.471,-146.802"/>
</g>
<!-- n2354&#45;&gt;g1852074 -->
<g id="edge35" class="edge"><title>n2354&#45;&gt;g1852074</title>
<path fill="none" stroke="black" d="M436.03,-72C444.03,-72 453.05,-72 461.82,-72"/>
<polygon fill="black" stroke="black" points="461.93,-75.5001 471.93,-72 461.93,-68.5001 461.93,-75.5001"/>
</g>
<!-- n2354&#45;&gt;g1852091 -->
<g id="edge36" class="edge"><title>n2354&#45;&gt;g1852091</title>
<path fill="none" stroke="black" d="M436.03,-56.958C447.4,-50.393 460.81,-42.645 472.67,-35.796"/>
<polygon fill="black" stroke="black" points="474.47,-38.7983 481.38,-30.767 470.97,-32.7362 474.47,-38.7983"/>
</g>
<!-- n2351 -->
<g id="node32" class="node"><title>n2351</title>
<polygon fill="paleturquoise" stroke="paleturquoise" points="436,-306 382,-306 382,-270 436,-270 436,-306"/>
<text text-anchor="middle" x="409" y="-284.3" font-family="arial" font-size="14.00">0</text>
</g>
<!-- g1852085&#45;&gt;n2351 -->
<g id="edge33" class="edge"><title>g1852085&#45;&gt;n2351</title>
<path fill="none" stroke="black" d="M336.65,-329.2C347.41,-322.99 360.59,-315.37 372.69,-308.39"/>
<polygon fill="black" stroke="black" points="374.763,-311.234 381.67,-303.2 371.261,-305.174 374.763,-311.234"/>
</g>
<!-- g1852086&#45;&gt;n2353 -->
<g id="edge34" class="edge"><title>g1852086&#45;&gt;n2353</title>
<path fill="none" stroke="black" d="M346.15,-396C354.43,-396 363.43,-396 371.92,-396"/>
<polygon fill="black" stroke="black" points="371.96,-399.5 381.96,-396 371.96,-392.5 371.96,-399.5"/>
</g>
<!-- n2351&#45;&gt;g1852080 -->
<g id="edge67" class="edge"><title>n2351&#45;&gt;g1852080</title>
<path fill="none" stroke="black" d="M436.03,-288C444.03,-288 453.05,-288 461.82,-288"/>
<polygon fill="black" stroke="black" points="461.93,-291.5 471.93,-288 461.93,-284.5 461.93,-291.5"/>
</g>
<!-- n2351&#45;&gt;g1852092 -->
<g id="edge68" class="edge"><title>n2351&#45;&gt;g1852092</title>
<path fill="none" stroke="black" d="M436.03,-272.96C447.4,-266.39 460.81,-258.65 472.67,-251.8"/>
<polygon fill="black" stroke="black" points="474.471,-254.802 481.38,-246.77 470.97,-248.74 474.471,-254.802"/>
</g>
<!-- n2340 -->
<g id="node35" class="node"><title>n2340</title>
<polygon fill="paleturquoise" stroke="paleturquoise" points="627,-90 573,-90 573,-54 627,-54 627,-90"/>
<text text-anchor="middle" x="600" y="-68.3" font-family="arial" font-size="14.00">5</text>
</g>
<!-- g1852074&#45;&gt;n2340 -->
<g id="edge37" class="edge"><title>g1852074&#45;&gt;n2340</title>
<path fill="none" stroke="black" d="M537.14,-72C545.43,-72 554.42,-72 562.92,-72"/>
<polygon fill="black" stroke="black" points="562.95,-75.5001 572.95,-72 562.95,-68.5001 562.95,-75.5001"/>
</g>
<!-- n2335 -->
<g id="node36" class="node"><title>n2335</title>
<polygon fill="paleturquoise" stroke="paleturquoise" points="627,-36 573,-36 573,-0 627,-0 627,-36"/>
<text text-anchor="middle" x="600" y="-14.3" font-family="arial" font-size="14.00">1</text>
</g>
<!-- g1852091&#45;&gt;n2335 -->
<g id="edge38" class="edge"><title>g1852091&#45;&gt;n2335</title>
<path fill="none" stroke="black" d="M537.14,-18C545.43,-18 554.42,-18 562.92,-18"/>
<polygon fill="black" stroke="black" points="562.95,-21.5001 572.95,-18 562.95,-14.5001 562.95,-21.5001"/>
</g>
<!-- n2382 -->
<g id="node37" class="node"><title>n2382</title>
<polygon fill="paleturquoise" stroke="paleturquoise" points="54,-90 0,-90 0,-54 54,-54 54,-90"/>
<text text-anchor="middle" x="27" y="-68.3" font-family="arial" font-size="14.00">1</text>
</g>
<!-- g1852075 -->
<g id="node38" class="node"><title>g1852075</title>
<ellipse fill="turquoise" stroke="turquoise" cx="122" cy="-18" rx="32.5" ry="18"/>
<text text-anchor="middle" x="122" y="-14.3" font-family="arial" font-size="14.00">fft&#45;hb</text>
</g>
<!-- n2382&#45;&gt;g1852075 -->
<g id="edge41" class="edge"><title>n2382&#45;&gt;g1852075</title>
<path fill="none" stroke="black" d="M54.044,-56.958C65.411,-50.393 78.825,-42.645 90.685,-35.796"/>
<polygon fill="black" stroke="black" points="92.4825,-38.7997 99.391,-30.767 88.9812,-32.7383 92.4825,-38.7997"/>
</g>
<!-- g1852076 -->
<g id="node39" class="node"><title>g1852076</title>
<ellipse fill="turquoise" stroke="turquoise" cx="122" cy="-72" rx="32.5" ry="18"/>
<text text-anchor="middle" x="122" y="-68.3" font-family="arial" font-size="14.00">fft&#45;hb</text>
</g>
<!-- n2382&#45;&gt;g1852076 -->
<g id="edge42" class="edge"><title>n2382&#45;&gt;g1852076</title>
<path fill="none" stroke="black" d="M54.044,-72C62.044,-72 71.059,-72 79.831,-72"/>
<polygon fill="black" stroke="black" points="79.943,-75.5001 89.943,-72 79.943,-68.5001 79.943,-75.5001"/>
</g>
<!-- n2372 -->
<g id="node40" class="node"><title>n2372</title>
<polygon fill="paleturquoise" stroke="paleturquoise" points="245,-36 191,-36 191,-0 245,-0 245,-36"/>
<text text-anchor="middle" x="218" y="-14.3" font-family="arial" font-size="14.00">1</text>
</g>
<!-- g1852075&#45;&gt;n2372 -->
<g id="edge43" class="edge"><title>g1852075&#45;&gt;n2372</title>
<path fill="none" stroke="black" d="M155.15,-18C163.44,-18 172.43,-18 180.93,-18"/>
<polygon fill="black" stroke="black" points="180.97,-21.5001 190.97,-18 180.97,-14.5001 180.97,-21.5001"/>
</g>
<!-- n2364 -->
<g id="node41" class="node"><title>n2364</title>
<polygon fill="paleturquoise" stroke="paleturquoise" points="245,-252 191,-252 191,-216 245,-216 245,-252"/>
<text text-anchor="middle" x="218" y="-230.3" font-family="arial" font-size="14.00">0</text>
</g>
<!-- g1852076&#45;&gt;n2364 -->
<g id="edge44" class="edge"><title>g1852076&#45;&gt;n2364</title>
<path fill="none" stroke="black" d="M143.13,-85.958C147.5,-89.789 151.78,-94.218 154.99,-99 183.23,-140.99 164.8,-163.71 190.99,-207 191.11,-207.19 191.22,-207.38 191.34,-207.56"/>
<polygon fill="black" stroke="black" points="188.609,-209.753 197.37,-215.71 194.236,-205.589 188.609,-209.753"/>
</g>
<!-- n2372&#45;&gt;g1852082 -->
<g id="edge45" class="edge"><title>n2372&#45;&gt;g1852082</title>
<path fill="none" stroke="black" d="M245.04,-33.042C256.41,-39.607 269.82,-47.355 281.68,-54.204"/>
<polygon fill="black" stroke="black" points="279.98,-57.2638 290.39,-59.233 283.48,-51.2017 279.98,-57.2638"/>
</g>
<!-- n2372&#45;&gt;g1852090 -->
<g id="edge46" class="edge"><title>n2372&#45;&gt;g1852090</title>
<path fill="none" stroke="black" d="M245.04,-18C253.04,-18 262.05,-18 270.83,-18"/>
<polygon fill="black" stroke="black" points="270.94,-21.5001 280.94,-18 270.94,-14.5001 270.94,-21.5001"/>
</g>
<!-- n2364&#45;&gt;g1852084 -->
<g id="edge49" class="edge"><title>n2364&#45;&gt;g1852084</title>
<path fill="none" stroke="black" d="M245.04,-234C253.04,-234 262.05,-234 270.83,-234"/>
<polygon fill="black" stroke="black" points="270.94,-237.5 280.94,-234 270.94,-230.5 270.94,-237.5"/>
</g>
<!-- n2364&#45;&gt;g1852087 -->
<g id="edge50" class="edge"><title>n2364&#45;&gt;g1852087</title>
<path fill="none" stroke="black" d="M245.04,-249.04C256.41,-255.61 269.82,-263.35 281.68,-270.2"/>
<polygon fill="black" stroke="black" points="279.98,-273.26 290.39,-275.23 283.481,-267.198 279.98,-273.26"/>
</g>
<!-- n2387 -->
<g id="node42" class="node"><title>n2387</title>
<polygon fill="paleturquoise" stroke="paleturquoise" points="54,-36 0,-36 0,-0 54,-0 54,-36"/>
<text text-anchor="middle" x="27" y="-14.3" font-family="arial" font-size="14.00">5</text>
</g>
<!-- n2387&#45;&gt;g1852075 -->
<g id="edge47" class="edge"><title>n2387&#45;&gt;g1852075</title>
<path fill="none" stroke="black" d="M54.044,-18C62.044,-18 71.059,-18 79.831,-18"/>
<polygon fill="black" stroke="black" points="79.943,-21.5001 89.943,-18 79.943,-14.5001 79.943,-21.5001"/>
</g>
<!-- n2387&#45;&gt;g1852076 -->
<g id="edge48" class="edge"><title>n2387&#45;&gt;g1852076</title>
<path fill="none" stroke="black" d="M54.044,-33.042C65.411,-39.607 78.825,-47.355 90.685,-54.204"/>
<polygon fill="black" stroke="black" points="88.9812,-57.2617 99.391,-59.233 92.4825,-51.2003 88.9812,-57.2617"/>
</g>
<!-- n2381 -->
<g id="node43" class="node"><title>n2381</title>
<polygon fill="paleturquoise" stroke="paleturquoise" points="54,-306 0,-306 0,-270 54,-270 54,-306"/>
<text text-anchor="middle" x="27" y="-284.3" font-family="arial" font-size="14.00">0</text>
</g>
<!-- g1852077 -->
<g id="node44" class="node"><title>g1852077</title>
<ellipse fill="turquoise" stroke="turquoise" cx="122" cy="-234" rx="32.5" ry="18"/>
<text text-anchor="middle" x="122" y="-230.3" font-family="arial" font-size="14.00">fft&#45;hb</text>
</g>
<!-- n2381&#45;&gt;g1852077 -->
<g id="edge51" class="edge"><title>n2381&#45;&gt;g1852077</title>
<path fill="none" stroke="black" d="M54.044,-272.96C65.411,-266.39 78.825,-258.65 90.685,-251.8"/>
<polygon fill="black" stroke="black" points="92.4832,-254.803 99.391,-246.77 88.9813,-248.742 92.4832,-254.803"/>
</g>
<!-- g1852078 -->
<g id="node45" class="node"><title>g1852078</title>
<ellipse fill="turquoise" stroke="turquoise" cx="122" cy="-288" rx="32.5" ry="18"/>
<text text-anchor="middle" x="122" y="-284.3" font-family="arial" font-size="14.00">fft&#45;hb</text>
</g>
<!-- n2381&#45;&gt;g1852078 -->
<g id="edge52" class="edge"><title>n2381&#45;&gt;g1852078</title>
<path fill="none" stroke="black" d="M54.044,-288C62.044,-288 71.059,-288 79.831,-288"/>
<polygon fill="black" stroke="black" points="79.943,-291.5 89.943,-288 79.943,-284.5 79.943,-291.5"/>
</g>
<!-- n2370 -->
<g id="node46" class="node"><title>n2370</title>
<polygon fill="paleturquoise" stroke="paleturquoise" points="245,-144 191,-144 191,-108 245,-108 245,-144"/>
<text text-anchor="middle" x="218" y="-122.3" font-family="arial" font-size="14.00">1</text>
</g>
<!-- g1852077&#45;&gt;n2370 -->
<g id="edge53" class="edge"><title>g1852077&#45;&gt;n2370</title>
<path fill="none" stroke="black" d="M142.27,-219.38C146.66,-215.57 151.17,-211.31 154.99,-207 174.12,-185.41 172.92,-175.48 190.99,-153 191.29,-152.63 191.59,-152.26 191.89,-151.89"/>
<polygon fill="black" stroke="black" points="194.68,-154.017 198.64,-144.19 189.416,-149.403 194.68,-154.017"/>
</g>
<!-- n2363 -->
<g id="node47" class="node"><title>n2363</title>
<polygon fill="paleturquoise" stroke="paleturquoise" points="245,-360 191,-360 191,-324 245,-324 245,-360"/>
<text text-anchor="middle" x="218" y="-338.3" font-family="arial" font-size="14.00">0</text>
</g>
<!-- g1852078&#45;&gt;n2363 -->
<g id="edge54" class="edge"><title>g1852078&#45;&gt;n2363</title>
<path fill="none" stroke="black" d="M145.65,-300.8C156.41,-307.01 169.6,-314.63 181.7,-321.61"/>
<polygon fill="black" stroke="black" points="180.271,-324.826 190.68,-326.8 183.773,-318.766 180.271,-324.826"/>
</g>
<!-- n2370&#45;&gt;g1852081 -->
<g id="edge55" class="edge"><title>n2370&#45;&gt;g1852081</title>
<path fill="none" stroke="black" d="M245.04,-141.04C256.41,-147.61 269.82,-155.35 281.68,-162.2"/>
<polygon fill="black" stroke="black" points="279.98,-165.26 290.39,-167.23 283.481,-159.198 279.98,-165.26"/>
</g>
<!-- n2370&#45;&gt;g1852089 -->
<g id="edge56" class="edge"><title>n2370&#45;&gt;g1852089</title>
<path fill="none" stroke="black" d="M245.04,-126C253.04,-126 262.05,-126 270.83,-126"/>
<polygon fill="black" stroke="black" points="270.94,-129.5 280.94,-126 270.94,-122.5 270.94,-129.5"/>
</g>
<!-- n2363&#45;&gt;g1852085 -->
<g id="edge59" class="edge"><title>n2363&#45;&gt;g1852085</title>
<path fill="none" stroke="black" d="M245.04,-342C253.04,-342 262.05,-342 270.83,-342"/>
<polygon fill="black" stroke="black" points="270.94,-345.5 280.94,-342 270.94,-338.5 270.94,-345.5"/>
</g>
<!-- n2363&#45;&gt;g1852086 -->
<g id="edge60" class="edge"><title>n2363&#45;&gt;g1852086</title>
<path fill="none" stroke="black" d="M245.04,-357.04C256.41,-363.61 269.82,-371.35 281.68,-378.2"/>
<polygon fill="black" stroke="black" points="279.98,-381.26 290.39,-383.23 283.481,-375.198 279.98,-381.26"/>
</g>
<!-- n2384 -->
<g id="node48" class="node"><title>n2384</title>
<polygon fill="paleturquoise" stroke="paleturquoise" points="54,-252 0,-252 0,-216 54,-216 54,-252"/>
<text text-anchor="middle" x="27" y="-230.3" font-family="arial" font-size="14.00">4</text>
</g>
<!-- n2384&#45;&gt;g1852077 -->
<g id="edge57" class="edge"><title>n2384&#45;&gt;g1852077</title>
<path fill="none" stroke="black" d="M54.044,-234C62.044,-234 71.059,-234 79.831,-234"/>
<polygon fill="black" stroke="black" points="79.943,-237.5 89.943,-234 79.943,-230.5 79.943,-237.5"/>
</g>
<!-- n2384&#45;&gt;g1852078 -->
<g id="edge58" class="edge"><title>n2384&#45;&gt;g1852078</title>
<path fill="none" stroke="black" d="M54.044,-249.04C65.411,-255.61 78.825,-263.35 90.685,-270.2"/>
<polygon fill="black" stroke="black" points="88.9813,-273.258 99.391,-275.23 92.4832,-267.197 88.9813,-273.258"/>
</g>
<!-- n2342 -->
<g id="node51" class="node"><title>n2342</title>
<polygon fill="paleturquoise" stroke="paleturquoise" points="627,-198 573,-198 573,-162 627,-162 627,-198"/>
<text text-anchor="middle" x="600" y="-176.3" font-family="arial" font-size="14.00">7</text>
</g>
<!-- g1852079&#45;&gt;n2342 -->
<g id="edge63" class="edge"><title>g1852079&#45;&gt;n2342</title>
<path fill="none" stroke="black" d="M537.14,-180C545.43,-180 554.42,-180 562.92,-180"/>
<polygon fill="black" stroke="black" points="562.95,-183.5 572.95,-180 562.95,-176.5 562.95,-183.5"/>
</g>
<!-- n2336 -->
<g id="node52" class="node"><title>n2336</title>
<polygon fill="paleturquoise" stroke="paleturquoise" points="627,-144 573,-144 573,-108 627,-108 627,-144"/>
<text text-anchor="middle" x="600" y="-122.3" font-family="arial" font-size="14.00">3</text>
</g>
<!-- g1852083&#45;&gt;n2336 -->
<g id="edge64" class="edge"><title>g1852083&#45;&gt;n2336</title>
<path fill="none" stroke="black" d="M537.14,-126C545.43,-126 554.42,-126 562.92,-126"/>
<polygon fill="black" stroke="black" points="562.95,-129.5 572.95,-126 562.95,-122.5 562.95,-129.5"/>
</g>
<!-- n2341 -->
<g id="node55" class="node"><title>n2341</title>
<polygon fill="paleturquoise" stroke="paleturquoise" points="627,-306 573,-306 573,-270 627,-270 627,-306"/>
<text text-anchor="middle" x="600" y="-284.3" font-family="arial" font-size="14.00">4</text>
</g>
<!-- g1852080&#45;&gt;n2341 -->
<g id="edge69" class="edge"><title>g1852080&#45;&gt;n2341</title>
<path fill="none" stroke="black" d="M537.14,-288C545.43,-288 554.42,-288 562.92,-288"/>
<polygon fill="black" stroke="black" points="562.95,-291.5 572.95,-288 562.95,-284.5 562.95,-291.5"/>
</g>
<!-- n2337 -->
<g id="node56" class="node"><title>n2337</title>
<polygon fill="paleturquoise" stroke="paleturquoise" points="627,-252 573,-252 573,-216 627,-216 627,-252"/>
<text text-anchor="middle" x="600" y="-230.3" font-family="arial" font-size="14.00">0</text>
</g>
<!-- g1852092&#45;&gt;n2337 -->
<g id="edge70" class="edge"><title>g1852092&#45;&gt;n2337</title>
<path fill="none" stroke="black" d="M537.14,-234C545.43,-234 554.42,-234 562.92,-234"/>
<polygon fill="black" stroke="black" points="562.95,-237.5 572.95,-234 562.95,-230.5 562.95,-237.5"/>
</g>
</g>
</svg>
